<?xml version="1.0" standalone="no"?>
<!DOCTYPE svg PUBLIC "-//W3C//DTD SVG 20010904//EN"
 "http://www.w3.org/TR/2001/REC-SVG-20010904/DTD/svg10.dtd">
<svg version="1.0" xmlns="http://www.w3.org/2000/svg"
 width="91.000000pt" height="91.000000pt" viewBox="0 0 91.000000 91.000000"
 preserveAspectRatio="xMidYMid meet">
<metadata>
Created by potrace 1.14, written by Peter Selinger 2001-2017
</metadata>
<g transform="translate(0.000000,91.000000) scale(0.100000,-0.100000)"
fill="#000000" stroke="none">
<path d="M0 455 l0 -455 25 0 c25 0 25 1 25 83 0 45 7 174 15 287 32 420 68
555 141 522 46 -21 64 -101 84 -362 6 -74 14 -153 17 -174 6 -36 7 -37 15 -17
4 13 13 55 18 95 25 167 46 226 84 226 36 0 53 -29 70 -120 9 -46 20 -88 24
-92 12 -12 28 4 51 49 11 23 25 44 31 48 19 12 47 -5 68 -44 28 -49 43 -55
106 -37 28 8 70 17 94 21 l42 7 0 209 0 209 -455 0 -455 0 0 -455z"/>
<path d="M172 809 c-28 -88 -57 -350 -67 -604 -3 -82 -8 -162 -10 -177 l-4
-28 409 0 410 0 0 220 c0 156 -3 220 -11 220 -6 0 -51 -9 -99 -20 -100 -24
-131 -18 -158 30 -9 16 -19 30 -22 30 -3 0 -11 -14 -18 -30 -16 -35 -64 -64
-93 -55 -30 10 -47 43 -60 120 -6 39 -15 74 -19 78 -8 9 -25 -55 -35 -133 -8
-64 -25 -141 -37 -173 -12 -31 -51 -46 -72 -28 -18 15 -33 108 -46 281 -12
165 -27 263 -44 286 -12 16 -14 14 -24 -17z"/>
</g>
</svg>
