<?xml version="1.0" encoding="UTF-8" standalone="no"?>
<!-- Uploaded to: SVG Repo, www.svgrepo.com, Transformed by: SVG Repo Mixer Tools -->

<svg
   width="800px"
   height="800px"
   viewBox="0 0 16 16"
   fill="#000000"
   version="1.1"
   id="svg1"
   sodipodi:docname="computer_dark.svg"
   inkscape:version="1.3.2 (091e20e, 2023-11-25, custom)"
   xmlns:inkscape="http://www.inkscape.org/namespaces/inkscape"
   xmlns:sodipodi="http://sodipodi.sourceforge.net/DTD/sodipodi-0.dtd"
   xmlns="http://www.w3.org/2000/svg"
   xmlns:svg="http://www.w3.org/2000/svg">
  <defs
     id="defs1" />
  <sodipodi:namedview
     id="namedview1"
     pagecolor="#ffffff"
     bordercolor="#000000"
     borderopacity="0.25"
     inkscape:showpageshadow="2"
     inkscape:pageopacity="0.0"
     inkscape:pagecheckerboard="0"
     inkscape:deskcolor="#d1d1d1"
     inkscape:zoom="0.78754018"
     inkscape:cx="233.63887"
     inkscape:cy="471.72196"
     inkscape:window-width="1920"
     inkscape:window-height="1129"
     inkscape:window-x="-8"
     inkscape:window-y="-8"
     inkscape:window-maximized="1"
     inkscape:current-layer="svg1" />
  <g
     id="SVGRepo_iconCarrier">
    <path
       d="M 3,0 C 1.339844,0 0,1.339844 0,3 v 7 c 0,1.660156 1.339844,3 3,3 h 10 c 1.660156,0 3,-1.339844 3,-3 V 3 C 16,1.339844 14.660156,0 13,0 Z m 0,2 h 10 c 0.554688,0 1,0.445312 1,1 v 7 c 0,0.554688 -0.445312,1 -1,1 H 3 C 2.445312,11 2,10.554688 2,10 V 3 C 2,2.445312 2.445312,2 3,2 Z m 2,12 c -1.105469,0 -2,0.894531 -2,2 h 10 c 0,-1.105469 -0.894531,-2 -2,-2 z m 0,0"
       fill="#000000"
       id="path1"
       inkscape:label="path1"
       style="opacity:1"
       inkscape:highlight-color="#232323" />
  </g>
  <path
     style="fill:#ffffff;stroke-width:1.26978"
     d="M 134.59631,648.60886 C 96.451458,644.52856 59.075196,624.41652 35.039422,595.03765 14.694153,570.16968 3.8496328,542.70331 1.2676577,509.50251 -0.39793195,488.08522 -0.37324064,160.51283 1.2955124,139.96229 2.0080443,131.18754 3.6668316,119.80182 4.9817065,114.66071 15.079833,75.177419 40.042045,41.665782 74.281924,21.625539 87.607349,13.826309 98.569921,9.3017309 115.45615,4.6317163 l 12.15639,-3.3619398 h 272.36705 272.36706 l 12.15638,3.3619398 c 15.39651,4.2580213 27.34375,8.9989587 38.63468,15.3311257 38.96709,21.853484 66.19222,60.749162 74.46089,106.379918 2.5226,13.92103 2.54755,380.16994 0.027,396.14022 -10.35613,65.61635 -63.78018,117.59678 -129.08826,125.60007 -8.0381,0.98505 -88.26525,1.34125 -270.46239,1.20084 -142.46892,-0.10981 -261.0343,-0.41357 -263.47862,-0.67503 z m 534.8891,-101.74228 c 14.2416,-5.751 26.73045,-21.05722 30.02341,-36.79637 0.99253,-4.74399 1.40226,-59.42873 1.38903,-185.38737 -0.0204,-194.26874 0.20284,-187.8992 -7.01758,-200.21992 -4.50375,-7.68505 -14.61336,-16.74105 -23.16138,-20.74751 l -7.26068,-3.40307 H 399.97959 136.50097 l -7.30456,3.42318 c -14.52148,6.80526 -25.423,20.58344 -28.73685,36.31984 -2.012169,9.55511 -2.002002,360.52887 0.0107,370.01485 1.90065,8.9578 6.48364,17.78842 12.77325,24.61184 6.35862,6.89828 11.82901,10.34837 21.14501,13.33581 6.86356,2.20099 19.06315,2.29452 267.49573,2.05076 l 260.30418,-0.2554 z"
     id="path2"
     transform="scale(0.02)" />
  <path
     style="fill:#ffffff;stroke-width:1.26978"
     d="m 151.12217,793.29286 c 0.0603,-19.38055 11.75175,-45.79269 27.37129,-61.83451 12.92892,-13.27844 25.99717,-21.20208 44.57788,-27.02878 l 11.20242,-3.51295 h 165.70583 165.70583 l 11.20242,3.51295 c 12.8313,4.02375 18.80217,6.86788 29.17441,13.89678 14.46494,9.80239 27.92598,26.0207 35.08348,42.26977 3.74476,8.5014 7.69018,25.25242 7.70115,32.69674 l 0.009,6.03144 H 399.97959 151.1034 Z"
     id="path3"
     transform="scale(0.02)" />
</svg>
