<?xml version="1.0" encoding="UTF-8" standalone="no"?>
<!-- Uploaded to: SVG Repo, www.svgrepo.com, Generator: SVG Repo Mixer Tools -->

<svg
   width="800px"
   height="800px"
   viewBox="0 0 24 24"
   fill="none"
   version="1.1"
   id="svg1"
   sodipodi:docname="construction_dark.svg"
   inkscape:version="1.3.2 (091e20e, 2023-11-25, custom)"
   xmlns:inkscape="http://www.inkscape.org/namespaces/inkscape"
   xmlns:sodipodi="http://sodipodi.sourceforge.net/DTD/sodipodi-0.dtd"
   xmlns="http://www.w3.org/2000/svg"
   xmlns:svg="http://www.w3.org/2000/svg">
  <defs
     id="defs1" />
  <sodipodi:namedview
     id="namedview1"
     pagecolor="#ffffff"
     bordercolor="#000000"
     borderopacity="0.25"
     inkscape:showpageshadow="2"
     inkscape:pageopacity="0.0"
     inkscape:pagecheckerboard="0"
     inkscape:deskcolor="#d1d1d1"
     inkscape:zoom="1.11375"
     inkscape:cx="400"
     inkscape:cy="400"
     inkscape:window-width="1920"
     inkscape:window-height="1129"
     inkscape:window-x="-8"
     inkscape:window-y="-8"
     inkscape:window-maximized="1"
     inkscape:current-layer="svg1" />
  <path
     fill-rule="evenodd"
     clip-rule="evenodd"
     d="M3.13861 8.5856C3.10395 8.79352 3.07799 8.98444 3.05852 9.15412C2.89911 9.20305 2.72733 9.2683 2.55279 9.35557C2.18416 9.53989 1.78511 9.83206 1.48045 10.2891C1.17162 10.7523 1 11.325 1 12C1 12.675 1.17162 13.2477 1.48045 13.7109C1.78511 14.1679 2.18416 14.4601 2.55279 14.6444C2.72733 14.7317 2.89911 14.7969 3.05852 14.8459C3.07798 15.0156 3.10395 15.2065 3.13861 15.4144C3.27452 16.2299 3.54822 17.3325 4.10557 18.4472C4.66489 19.5658 5.51956 20.7149 6.8203 21.5821C8.1273 22.4534 9.82502 23 12 23C14.175 23 15.8727 22.4534 17.1797 21.5821C18.4804 20.7149 19.3351 19.5658 19.8944 18.4472C20.4518 17.3325 20.7255 16.2299 20.8614 15.4144C20.896 15.2065 20.922 15.0156 20.9415 14.8459C21.1009 14.7969 21.2727 14.7317 21.4472 14.6444C21.8158 14.4601 22.2149 14.1679 22.5196 13.7109C22.8284 13.2477 23 12.675 23 12C23 11.325 22.8284 10.7523 22.5196 10.2891C22.2149 9.83206 21.8158 9.53989 21.4472 9.35557C21.2727 9.2683 21.1009 9.20305 20.9415 9.15412C20.922 8.98444 20.896 8.79352 20.8614 8.5856C20.7255 7.77011 20.4518 6.6675 19.8944 5.55278C19.3351 4.43416 18.4804 3.28511 17.1797 2.41795C15.8727 1.54662 14.175 1 12 1C9.82502 1 8.1273 1.54662 6.8203 2.41795C5.51957 3.28511 4.66489 4.43416 4.10558 5.55279C3.54822 6.6675 3.27452 7.77011 3.13861 8.5856ZM18.9025 15H5.09753C5.20639 15.692 5.43305 16.63 5.89443 17.5528C6.33511 18.4342 6.98044 19.2851 7.9297 19.9179C8.8727 20.5466 10.175 21 12 21C13.825 21 15.1273 20.5466 16.0703 19.9179C17.0196 19.2851 17.6649 18.4342 18.1056 17.5528C18.5669 16.63 18.7936 15.692 18.9025 15ZM18.9025 9H18C17.4477 9 17 9.44771 17 10C17 10.5523 17.4477 11 18 11H20C20.3084 11.012 20.6759 11.1291 20.8554 11.3984C20.9216 11.4977 21 11.675 21 12C21 12.325 20.9216 12.5023 20.8554 12.6016C20.6759 12.8709 20.3084 12.988 20 13H4C3.69155 12.988 3.32414 12.8709 3.14455 12.6016C3.07838 12.5023 3 12.325 3 12C3 11.675 3.07838 11.4977 3.14455 11.3984C3.32414 11.1291 3.69155 11.012 4 11H6C6.55228 11 7 10.5523 7 10C7 9.44771 6.55228 9 6 9H5.09753C5.20639 8.30804 5.43306 7.36996 5.89443 6.44721C6.33512 5.56584 6.98044 4.71489 7.92971 4.08205C8.24443 3.87224 8.59917 3.68195 9 3.52152V6C9 6.55228 9.44771 7 10 7C10.5523 7 11 6.55228 11 6V3.04872C11.3146 3.01691 11.6476 3 12 3C12.3524 3 12.6854 3.01691 13 3.04872V6C13 6.55228 13.4477 7 14 7C14.5523 7 15 6.55228 15 6V3.52152C15.4008 3.68195 15.7556 3.87224 16.0703 4.08205C17.0196 4.71489 17.6649 5.56584 18.1056 6.44721C18.5669 7.36996 18.7936 8.30804 18.9025 9Z"
     fill="#0F0F0F"
     id="path1" />
  <path
     style="fill:#ffffff;stroke-width:0.897868"
     d="m 379.79798,765.80388 c -28.46641,-2.1434 -46.36574,-4.77397 -66.6286,-9.79207 -98.37477,-24.36254 -167.79826,-94.2677 -198.33845,-199.71455 -4.4149,-15.24342 -9.55968,-39.45686 -11.25879,-52.9885 l -1.07783,-8.58373 -8.463786,-3.35935 c -28.954043,-11.49207 -49.397606,-34.28366 -56.84536,-63.37427 -5.734622,-22.39919 -3.94613,-49.15712 4.668835,-69.8512 9.082894,-21.81809 29.454434,-41.02463 52.912964,-49.88699 l 7.733427,-2.9216 1.07479,-8.61206 c 2.7931,-22.38061 11.05038,-55.61274 19.30645,-77.70052 15.80452,-42.28239 35.63845,-74.44063 63.85015,-103.5251 44.29702,-45.66739 100.70147,-71.654877 173.03938,-79.725256 19.03079,-2.12317 61.42689,-2.12317 80.45768,0 72.63367,8.103374 128.6879,34.007262 173.5027,80.179386 32.5274,33.51258 56.62899,76.54825 71.32996,127.36639 4.52549,15.64365 9.66544,39.80027 11.36333,53.4051 l 1.07478,8.61206 7.73342,2.9216 c 23.3271,8.81271 43.84136,28.08572 52.78972,49.59558 10.80882,25.98198 10.80882,58.32042 0,84.3024 -8.94836,21.50986 -29.46262,40.78287 -52.78972,49.59558 l -7.73342,2.9216 -1.07478,8.61206 c -2.95317,23.66314 -11.39529,56.95785 -20.48298,80.78241 -40.2274,105.46126 -121.48032,167.76143 -234.77847,180.01489 -12.28088,1.3282 -51.86326,2.44161 -61.3654,1.72614 z m 35.95036,-65.90629 c 28.88731,-1.45937 49.96473,-5.14475 72.67143,-12.70657 56.0767,-18.67476 97.1272,-57.63432 121.92125,-115.71106 7.45946,-17.4728 14.3532,-40.34903 18.12449,-60.14438 0.79968,-4.19753 1.64898,-8.54097 1.88733,-9.65208 l 0.43333,-2.0202 H 400 169.21383 l 0.43333,2.0202 c 0.23835,1.11111 1.08765,5.45455 1.88733,9.65208 3.77129,19.79535 10.66503,42.67158 18.12449,60.14438 34.1822,80.06724 99.48709,123.74056 191.93473,128.35834 7.40741,0.37001 14.2761,0.72903 15.26375,0.79783 0.98766,0.0688 9.48855,-0.26354 18.89088,-0.73854 z M 671.86228,433.18941 c 9.40651,-1.52647 15.35851,-4.24179 20.40652,-9.30954 6.08334,-6.10711 7.9871,-11.96981 7.90015,-24.3288 -0.12243,-17.4014 -6.04416,-26.2491 -20.8557,-31.1606 -5.63033,-1.86701 -7.88416,-1.98442 -47.21448,-2.45949 l -41.30191,-0.49888 -5.66787,-3.07312 c -11.52262,-6.24756 -17.57703,-16.30222 -17.61297,-29.25011 -0.0172,-6.17599 0.3665,-8.0011 2.73667,-13.01908 3.49755,-7.40484 9.07358,-12.98826 16.50376,-16.52566 l 5.83614,-2.7785 19.07743,-0.30159 c 19.0173,-0.30065 19.07613,-0.30773 18.66345,-2.24467 -0.22769,-1.06869 -1.06828,-5.37742 -1.86796,-9.57495 -13.05661,-68.53376 -46.30427,-122.90443 -94.23431,-154.10355 -8.22313,-5.35269 -31.31775,-17.38915 -33.36494,-17.38915 -0.88325,0 -1.18182,9.7012 -1.38854,45.11784 l -0.26335,45.11785 -2.7785,5.83614 c -3.5374,7.43018 -9.12082,13.00621 -16.52566,16.50376 -5.01798,2.37017 -6.84309,2.75382 -13.01908,2.73667 -12.94789,-0.0359 -23.00255,-6.09035 -29.25011,-17.61297 l -3.07312,-5.66787 -0.2512,-54.01473 -0.25119,-54.01473 -8.72748,-0.68568 c -11.23164,-0.88243 -39.44442,-0.88243 -50.67606,0 l -8.72748,0.68568 -0.25119,54.01473 -0.2512,54.01473 -3.07312,5.66787 c -6.24756,11.52262 -16.30222,17.57703 -29.25011,17.61297 -6.17599,0.0171 -8.0011,-0.3665 -13.01908,-2.73667 -7.40484,-3.49755 -12.98826,-9.07358 -16.52566,-16.50376 l -2.7785,-5.83614 -0.26335,-45.11785 c -0.20672,-35.41664 -0.50529,-45.11784 -1.38854,-45.11784 -2.19793,0 -25.42407,12.21309 -34.26281,18.01654 -32.35291,21.24271 -58.04859,53.1289 -75.21195,93.33178 -7.45946,17.4728 -14.3532,40.34903 -18.12449,60.14438 -0.79968,4.19753 -1.64027,8.50626 -1.86796,9.57495 -0.41268,1.93694 -0.35385,1.94402 18.66345,2.24467 l 19.07743,0.30159 5.83614,2.7785 c 7.42653,3.53566 13.00287,9.1173 16.50998,16.52566 2.39442,5.05796 2.75536,6.79389 2.70695,13.01908 -0.10147,13.04872 -6.097,23.0189 -17.58947,29.25011 l -5.66787,3.07312 -41.30191,0.49888 c -39.33032,0.47507 -41.58415,0.59248 -47.21448,2.45949 -10.12476,3.35736 -16.23966,8.97918 -19.24441,17.69258 -2.223029,6.44649 -2.208506,20.75702 0.0282,27.8339 3.17252,10.03757 12.53515,16.98806 25.88896,19.21907 6.83006,1.14109 537.47942,1.19313 544.50274,0.0534 z"
     id="path2"
     transform="scale(0.03)" />
</svg>
