<?xml version="1.0" encoding="UTF-8" standalone="no"?>
<!-- Created with Inkscape (http://www.inkscape.org/) -->

<svg
   width="84.137489mm"
   height="40.065071mm"
   viewBox="0 0 84.137489 40.065071"
   version="1.1"
   id="svg1"
   xml:space="preserve"
   sodipodi:docname="djl_col_dark.svg"
   inkscape:version="1.3.2 (091e20e, 2023-11-25, custom)"
   xmlns:inkscape="http://www.inkscape.org/namespaces/inkscape"
   xmlns:sodipodi="http://sodipodi.sourceforge.net/DTD/sodipodi-0.dtd"
   xmlns="http://www.w3.org/2000/svg"
   xmlns:svg="http://www.w3.org/2000/svg"><sodipodi:namedview
     id="namedview1"
     pagecolor="#505050"
     bordercolor="#eeeeee"
     borderopacity="1"
     inkscape:showpageshadow="0"
     inkscape:pageopacity="0"
     inkscape:pagecheckerboard="0"
     inkscape:deskcolor="#505050"
     inkscape:document-units="mm"
     inkscape:zoom="3.175"
     inkscape:cx="200.15748"
     inkscape:cy="88.661417"
     inkscape:window-width="1920"
     inkscape:window-height="1129"
     inkscape:window-x="-8"
     inkscape:window-y="-8"
     inkscape:window-maximized="1"
     inkscape:current-layer="layer1" /><defs
     id="defs1" /><g
     inkscape:label="Layer 1"
     inkscape:groupmode="layer"
     id="layer1"
     transform="translate(-0.96388,-0.72189133)"><path
       style="fill:#000000;fill-opacity:1"
       d="m 1.493046,40.577303 c 0,-0.0752 0.297657,-1.51351 0.661459,-3.19617 0.363802,-1.68266 0.661458,-3.10938 0.661458,-3.1705 0,-0.0611 0.238125,-0.11113 0.529167,-0.11113 0.291041,0 0.529166,0.0415 0.529166,0.0922 0,0.0507 0.297657,1.43797 0.661459,3.08278 0.791729,3.57955 0.785178,3.43959 0.160974,3.43959 -0.313189,0 -0.562611,-0.24754 -0.666499,-0.66146 -0.106511,-0.42438 -0.352069,-0.66146 -0.6851,-0.66146 -0.333031,0 -0.57859,0.23708 -0.685101,0.66146 -0.139716,0.55667 -1.166983,1.01853 -1.166983,0.52467 z m 2.173105,-2.77363 c -0.06407,-0.43656 -0.222047,-0.79375 -0.351051,-0.79375 -0.129005,0 -0.234554,0.35719 -0.234554,0.79375 0,0.48312 0.137384,0.79375 0.351051,0.79375 0.239557,0 0.314051,-0.2521 0.234554,-0.79375 z m 7.260611,2.42656 -0.437882,-0.48385 v -2.82344 -2.82344 h 0.529166 0.529167 v 2.49191 c 0,2.71387 0.127442,3.32893 0.689766,3.32893 h 0.368567 v -2.91042 -2.91042 h 0.661458 0.661459 v 2.71926 2.71925 l -0.411878,0.58804 c -0.519246,0.74133 -1.960737,0.79931 -2.589823,0.10418 z m 9.351701,-2.26341 v -2.74727 l -0.529167,-0.13838 c -0.291042,-0.0761 -0.529167,-0.32812 -0.529167,-0.56002 v -0.42165 h 1.5875 1.5875 v 0.42165 c 0,0.2319 -0.238125,0.48391 -0.529166,0.56002 l -0.529167,0.13838 v 2.74727 2.74727 h -0.529167 -0.529166 z m 7.804746,2.21759 -0.502247,-0.55498 0.0036,-2.16965 c 0.005,-3.01658 0.716416,-3.99292 2.570425,-3.5276 1.161947,0.29164 1.757477,4.27538 0.895168,5.98816 l -0.333017,0.66145 -1.065836,0.0788 -1.065836,0.0788 z m 2.070514,-1.40197 c 0.266135,-1.12533 0.0147,-3.79592 -0.380368,-4.04009 -0.834023,-0.51545 -1.492941,3.12993 -0.862643,4.77246 0.284777,0.74212 0.992985,0.32485 1.243011,-0.73237 z m 6.886798,0.80717 c 0.08437,-0.61847 0.232321,-2.10675 0.328789,-3.30729 l 0.175398,-2.18282 h 0.503306 c 0.56838,0 0.596285,0.06 1.046631,2.24896 l 0.326598,1.5875 0.38271,-1.91823 0.382709,-1.91823 h 0.49694 c 0.27331,0 0.50495,0.0298 0.51475,0.0662 0.01,0.0364 0.1653,1.52991 0.34555,3.31897 l 0.32774,3.25282 -0.54399,-0.0778 -0.54399,-0.0778 -0.13229,-1.5875 -0.13229,-1.5875 -0.34723,1.66987 -0.347235,1.66987 -0.441317,-0.085 c -0.302482,-0.0583 -0.531426,-0.54196 -0.727751,-1.53758 l -0.286435,-1.45258 -0.200823,1.52135 -0.200822,1.52136 h -0.54017 -0.54017 z m 10.225429,0.78136 c 0,-0.35721 0.97385,-4.99915 1.21857,-5.80845 0.077,-0.25466 0.35085,-0.46302 0.60855,-0.46302 h 0.46854 l 0.6114,2.97657 c 0.33628,1.63711 0.66995,3.13586 0.7415,3.33057 0.0906,0.2464 -0.0622,0.32683 -0.50246,0.26458 -0.41953,-0.0593 -0.66103,-0.2899 -0.7171,-0.68474 l -0.0845,-0.59531 h -0.64306 -0.64305 v 0.66146 0.66146 h -0.52917 c -0.29104,0 -0.52917,-0.15441 -0.52917,-0.34312 z m 2.0903,-2.23657 c -0.0145,-0.25466 -0.1217,-0.76068 -0.23821,-1.12448 l -0.21184,-0.66146 -0.0264,0.70597 c -0.0145,0.38828 -0.0986,0.89429 -0.18697,1.12448 -0.10539,0.27463 -0.0144,0.41851 0.26458,0.41851 0.23859,0 0.41361,-0.20319 0.39881,-0.46302 z m 7.4347,-0.16758 v -2.74727 l -0.52916,-0.13838 c -0.29104,-0.0761 -0.52917,-0.32812 -0.52917,-0.56002 v -0.42165 h 1.5875 1.5875 v 0.42165 c 0,0.2319 -0.23812,0.48391 -0.52917,0.56002 l -0.52916,0.13838 v 2.74727 2.74727 h -0.52917 -0.52917 z m 7.67292,-0.56003 v -3.30729 h 0.52917 0.52916 v 3.30729 3.3073 h -0.52916 -0.52917 z m 7.54016,2.77762 -0.50224,-0.55498 0.004,-2.16965 c 0.005,-3.01658 0.71641,-3.99292 2.57042,-3.5276 1.16195,0.29164 1.75748,4.27538 0.89517,5.98816 l -0.33302,0.66145 -1.06583,0.0788 -1.06584,0.0788 z m 2.07052,-1.40197 c 0.26613,-1.12533 0.0147,-3.79592 -0.38037,-4.04009 -0.83402,-0.51545 -1.49294,3.12993 -0.86264,4.77246 0.28477,0.74212 0.99298,0.32485 1.24301,-0.73237 z m 7.05807,-1.39505 v -3.32669 l 0.45133,0.0869 c 0.2811,0.0541 0.72391,0.78498 1.17399,1.93763 l 0.72266,1.85071 0.0166,-1.91823 0.0166,-1.91823 h 0.52917 0.52916 v 3.3257 3.32569 l -0.56,-0.0846 -0.56001,-0.0845 -0.61197,-1.5875 -0.61197,-1.5875 -0.0187,1.65365 -0.0187,1.65365 H 81.66162 81.13245 Z M 0.96388,15.843251 V 0.76200133 H 13.002421 25.040962 V 7.5038313 14.245671 l -0.595312,0.11298 c -0.327422,0.0621 -1.533441,0.3302 -2.680042,0.59571 l -2.08473,0.48273 -0.428812,-0.61199 c -0.235846,-0.33659 -0.734167,-0.97558 -1.107378,-1.41997 l -0.678566,-0.80799 -0.557015,0.29811 c -0.306359,0.16396 -0.691704,0.70621 -0.856322,1.20501 -0.164619,0.4988 -0.476857,1.05426 -0.693861,1.23436 l -0.394555,0.32745 -0.288425,-0.28842 c -0.158634,-0.15864 -0.447835,-1.20513 -0.64267,-2.32554 -0.392892,-2.25937 -0.919117,-3.2902797 -1.679512,-3.2902797 -1.160723,0 -1.557391,0.9681597 -2.276483,5.5562497 -0.239478,1.52797 -0.528643,2.94694 -0.642589,3.15327 l -0.207175,0.37513 -0.154547,-0.77201 c -0.085,-0.42461 -0.280843,-2.43889 -0.435205,-4.47618 C 8.099747,6.4934813 7.486805,3.9177413 6.258637,3.5965613 4.286916,3.0809513 3.23596,7.8758113 2.559498,20.473463 c -0.164097,3.05594 -0.363227,6.65758 -0.442513,8.00364 l -0.144156,2.4474 H 1.468354 0.96388 Z m 2.38261,13.559902 c 0.0062,-6.91421 1.140453,-19.9357117 2.005104,-23.0187517 0.883539,-3.1504 1.326387,-1.36262 2.244727,9.0619797 0.662788,7.523682 2.586076,7.256772 3.813064,-0.52917 0.664968,-4.21961 0.949389,-4.52224 1.430564,-1.52219 0.556409,3.46914 2.708936,4.59082 3.923236,2.04441 0.524476,-1.09984 0.667587,-1.12919 1.146108,-0.23507 0.201345,0.37622 0.697984,0.85567 1.103641,1.06544 l 0.737559,0.38141 2.218374,-0.53627 c 1.220106,-0.29495 2.410461,-0.53627 2.645235,-0.53627 h 0.42686 v 7.672912 7.67292 H 14.193046 3.34513 Z m 24.604889,-1.23672 v -2.79818 h 5.838227 c 3.518464,0 6.041576,-0.10883 6.349996,-0.27389 l 0.51177,-0.27389 V 15.843251 6.8660413 l -0.51177,-0.2739 c -0.30842,-0.16506 -2.831532,-0.27389 -6.349996,-0.27389 h -5.838227 v -2.79818 -2.79817997 l 6.680729,0.0862 6.680724,0.0862 1.44629,0.79374997 c 3.17014,1.73983 3.4485,2.88244 3.4485,14.1552097 0,11.272772 -0.27836,12.415382 -3.4485,14.155202 l -1.44629,0.79375 -6.680724,0.0862 -6.680729,0.0862 z m 21.024441,2.43074 c -0.0794,-0.2068 -0.10959,-1.43815 -0.0672,-2.73632 l 0.0771,-2.36031 4.5743,-0.13229 4.5743,-0.13229 0.25029,-0.39688 c 0.14753,-0.23393 0.25196,-5.25798 0.25435,-12.236982 l 0.004,-11.84009967 h 2.77812 2.77813 V 12.499851 c 0,14.987652 -0.12014,15.597912 -3.43959,17.471152 l -1.4552,0.82121 -5.0922,0.0905 -5.0922,0.0905 z m 25.27763,-0.18969 c -4.03026,-1.38406 -4.23333,-2.2216 -4.23333,-17.459522 V 0.76200133 h 2.77813 2.77812 V 12.904531 25.047053 l 0.41852,0.1606 c 0.23018,0.0883 2.3733,0.1606 4.7625,0.1606 h 4.34398 v 2.77812 2.77813 l -4.69635,-0.009 -4.69636,-0.009 z"
       id="path1" /><path
       style="fill:#800000;stroke-width:0.314961"
       d="M 102.20472,103.86582 V 93.478639 l 19.6063,-0.191937 c 20.37358,-0.199452 25.5185,-0.469776 27.15739,-1.426916 l 0.95285,-0.556485 0.0801,-34.185865 0.0801,-34.185865 -1.1856,-0.534629 c -2.09826,-0.946185 -6.14939,-1.151345 -26.61247,-1.347721 L 102.20472,20.856534 V 10.507007 0.15748032 l 2.12599,-7.8576e-4 C 105.5,0.1562624 116.80315,0.30685994 129.44882,0.49135578 l 22.99213,0.33544696 3.77952,2.06857786 c 6.95197,3.8048893 9.12035,5.7150698 11.01461,9.7030444 2.02602,4.265346 2.81744,9.453449 3.3055,21.668797 0.40808,10.213641 0.40808,35.582624 0,45.796265 -0.82944,20.759563 -2.49293,24.635403 -13.16894,30.682813 l -4.79267,2.71479 -14.87216,0.19982 c -8.17969,0.10989 -19.5139,0.28808 -25.18712,0.39595 l -10.31497,0.19615 z"
       id="path2"
       transform="matrix(0.26458333,0,0,0.26458333,0.96388,0.72189133)" /><path
       style="fill:#800000;stroke-width:0.314961"
       d="m 181.84487,113.50711 c -0.33811,-0.59407 -0.41375,-2.71948 -0.36159,-10.16099 0.0363,-5.175386 0.10714,-9.446536 0.15748,-9.491443 0.0503,-0.04491 6.61121,-0.254488 14.57971,-0.465735 7.96851,-0.211244 15.76378,-0.475531 17.32284,-0.587298 l 2.83464,-0.203219 0.55281,-1.130208 c 0.82994,-1.696812 1.16468,-18.252872 1.17273,-58.00365 l 0.007,-33.30708668 h 10.42884 10.42884 l -0.1667,40.07874068 c -0.16459,39.630176 -0.32141,45.908491 -1.32029,52.857499 -1.4015,9.74995 -3.24296,12.44787 -11.94032,17.49377 l -4.94852,2.87095 -10.61113,0.20279 c -5.83612,0.11154 -14.4581,0.2915 -19.15996,0.39994 l -8.54883,0.19714 z"
       id="path3"
       transform="matrix(0.26458333,0,0,0.26458333,0.96388,0.72189133)" /><path
       style="fill:#800000;stroke-width:0.314961"
       d="m 277.95276,112.32566 c -5.53841,-1.95114 -7.02295,-2.63419 -9.0479,-4.16304 -3.19939,-2.41556 -4.95574,-6.11742 -6.06576,-12.784777 -1.26221,-7.581506 -1.35399,-10.887818 -1.49128,-53.7243 L 261.21481,0.15748032 h 10.25874 10.25873 V 46.11092 92.064362 l 1.02363,0.376107 c 1.43637,0.527761 11.38521,0.908652 24.25196,0.928485 l 10.94489,0.01687 v 10.236226 10.23622 l -17.87402,-0.0173 -17.87402,-0.0173 z"
       id="path4"
       transform="matrix(0.26458333,0,0,0.26458333,0.96388,0.72189133)" /><path
       style="fill:#ffffff;fill-opacity:1;stroke-width:0.314961"
       d="m 9.2918132,105.90551 c 0.00146,-24.537973 4.0006458,-70.471285 7.2874038,-83.700786 0.765723,-3.082105 1.96663,-5.984252 2.476279,-5.984252 0.616631,0 1.523097,2.592324 2.177749,6.227951 0.795816,4.41959 1.914772,14.167612 3.171629,27.630317 1.035858,11.095506 1.800111,16.547358 2.841273,20.268429 1.613032,5.764913 3.710417,7.467719 5.99426,4.866567 2.482917,-2.827887 4.423984,-9.6299 6.768234,-23.717673 1.015712,-6.10393 1.666679,-9.029591 2.273274,-10.21689 l 0.472872,-0.925552 0.411654,0.785672 c 0.226409,0.43212 0.639597,1.982476 0.918189,3.445237 1.918693,10.074154 3.694394,13.994821 7.132844,15.748985 3.276942,1.671773 6.228167,0.03007 8.771669,-4.87949 1.182797,-2.283074 1.893944,-3.098667 2.407348,-2.760926 0.184174,0.121159 0.834659,1.007506 1.445525,1.969663 1.310012,2.063373 3.014327,3.580199 5.411975,4.816618 l 1.738872,0.896702 5.44845,-1.319865 C 83.342989,57.384315 88.885291,56.226186 90,56.22297 l 0.866142,-0.0025 V 85.039367 113.85827 H 50.07874 9.2913386 Z"
       id="path5"
       transform="matrix(0.26458333,0,0,0.26458333,0.96388,0.72189133)" /><path
       style="fill:#ffffff;fill-opacity:1;stroke-width:0.314961"
       d="M 0.15748032,57.007874 V 0.15748032 H 45.513672 90.869868 l -0.0806,25.39050168 -0.0806,25.390503 -8.976378,2.026006 c -4.937008,1.114306 -9.409364,2.104211 -9.938571,2.199796 -0.880863,0.159099 -1.078091,0.01807 -2.333326,-1.668479 -3.067533,-4.121562 -6.802815,-8.613918 -7.162261,-8.613918 -0.770929,0 -3.11423,1.667782 -3.915345,2.786649 -0.453017,0.632696 -1.289253,2.271442 -1.858302,3.641656 -0.664073,1.599024 -1.486114,2.942778 -2.295194,3.751859 l -1.260561,1.26056 -0.725659,-0.843631 C 51.33658,54.425131 50.838098,52.753761 49.426309,46.034592 47.43205,36.543279 45.95943,33.958724 42.621584,34.09183 c -1.323423,0.05277 -2.540759,0.679887 -3.474397,1.789846 -1.399641,1.663965 -2.813946,7.03903 -4.483316,17.038834 -1.830718,10.966312 -2.674488,14.638545 -3.363499,14.638545 -0.152211,0 -0.277894,-0.106299 -0.279292,-0.23622 -0.0014,-0.129922 -0.206723,-1.795276 -0.456278,-3.700788 C 30.315247,61.716535 29.748438,55.76378 29.305228,50.393701 27.987759,34.430825 27.155345,27.310718 25.946728,21.666552 24.636569,15.548196 22.846503,11.863671 20.760763,10.992194 15.317096,8.7176841 11.732907,16.269953 9.1615049,35.433071 7.5886353,47.154724 6.7871398,57.789187 5.0429839,90.07874 4.434771,101.33858 3.8560476,111.29528 3.7569313,112.20472 l -0.180211,1.65355 H 1.8671004 0.15748032 Z"
       id="path6"
       transform="matrix(0.26458333,0,0,0.26458333,0.96388,0.72189133)" /><path
       style="fill:#ffffff;fill-opacity:1;stroke-width:0.314961"
       d="m 2.258495,151.11062 c -0.094837,-0.15344 0.9801113,-5.76335 2.3887737,-12.46646 l 2.5612041,-12.18747 h 1.8288346 c 1.0058586,0 1.8288346,0.0807 1.8288346,0.17936 0,0.0987 1.069954,5.08602 2.377675,11.08304 1.307722,5.99702 2.335281,11.40726 2.283465,12.02275 -0.101599,1.20682 -0.611247,1.49698 -2.011908,1.14543 -0.558884,-0.14027 -1.040992,-0.76415 -1.786112,-2.31135 -0.759051,-1.57613 -1.242567,-2.19534 -1.8867423,-2.41625 -1.4967424,-0.51327 -2.4963313,0.0842 -3.4356898,2.0535 -0.4604957,0.9654 -1.1898277,1.98629 -1.6207376,2.26863 -1.0115528,0.6628 -2.3073625,0.98517 -2.5275973,0.62882 z m 8.140569,-8.98464 c 0.209106,-1.11839 -0.309622,-3.90603 -0.8474237,-4.55404 -0.9375578,-1.12969 -1.6348091,0.0402 -1.63484,2.74302 -2.04e-5,1.82473 0.5446624,2.83465 1.5288284,2.83465 0.6105143,0 0.8001053,-0.20355 0.9534353,-1.02363 z"
       id="path7"
       transform="matrix(0.26458333,0,0,0.26458333,0.96388,0.72189133)" /><path
       style="fill:#ffffff;fill-opacity:1;stroke-width:0.314961"
       d="m 40.034102,150.55913 c -0.674157,-0.24027 -1.843448,-1.04309 -2.598425,-1.78404 l -1.372685,-1.34719 v -10.64308 -10.64309 h 1.889764 1.889764 l 0.0097,7.79528 c 0.0099,7.97166 0.298949,11.76083 1.010786,13.25252 0.339625,0.7117 0.632878,0.85682 1.895365,0.93796 l 1.493574,0.096 v -11.04088 -11.04088 h 2.362204 2.362205 v 10.20794 10.20794 l -1.290018,1.63199 c -2.048858,2.592 -4.713161,3.41701 -7.652258,2.36953 z"
       id="path8"
       transform="matrix(0.26458333,0,0,0.26458333,0.96388,0.72189133)" /><path
       style="fill:#ffffff;fill-opacity:1;stroke-width:0.314961"
       d="M 73.228347,140.64206 V 130.2605 l -1.338583,-0.35526 c -1.817051,-0.48225 -2.755906,-1.40753 -2.755906,-2.71605 v -1.04746 h 5.826772 5.826772 v 1.04217 c 0,1.40902 -0.501411,1.97217 -2.362205,2.65307 l -1.574803,0.57625 -0.08304,10.3052 -0.08304,10.3052 h -1.72798 -1.727979 z"
       id="path9"
       transform="matrix(0.26458333,0,0,0.26458333,0.96388,0.72189133)" /><path
       style="fill:#ffffff;fill-opacity:1;stroke-width:0.314961"
       d="m 102.57509,148.96084 -1.94517,-2.12281 0.005,-3.97019 c 0.007,-5.21791 0.48643,-10.80414 1.10701,-12.88661 0.63939,-2.14557 2.32077,-4.03681 3.988,-4.48575 1.6469,-0.44346 4.46187,-0.0757 5.46597,0.71416 1.06164,0.83508 2.24562,3.2429 3.04022,6.18277 0.50831,1.88064 0.6579,3.41497 0.68029,6.97767 0.0303,4.81734 -0.17566,6.00699 -1.59178,9.19532 -0.91204,2.0534 -0.78972,2.00314 -5.63142,2.31431 l -3.17295,0.20393 z m 6.27621,-1.75143 c 0.50328,-0.53876 1.1468,-1.77676 1.43005,-2.7511 0.95202,-3.27483 0.42566,-13.13098 -0.82616,-15.47003 -0.42271,-0.78984 -1.62678,-0.83767 -2.28178,-0.0906 -1.49064,1.70009 -2.48966,5.92363 -2.55162,10.7874 -0.0894,7.02068 1.70986,10.22166 4.22951,7.52437 z"
       id="path10"
       transform="matrix(0.26458333,0,0,0.26458333,0.96388,0.72189133)" /><path
       style="fill:#ffffff;fill-opacity:1;stroke-width:0.314961"
       d="m 136.02869,150.15748 c 0.42179,-2.10885 2.37567,-21.54364 2.39428,-23.81529 0.003,-0.3379 2.86097,0.0637 3.357,0.47173 0.45102,0.37097 1.37239,3.83484 2.52303,9.48529 0.48504,2.38189 0.95932,4.33071 1.05396,4.33071 0.0946,0 0.81369,-3.22441 1.59789,-7.16535 l 1.42582,-7.16536 1.705,0.0948 c 0.93774,0.0521 1.73979,0.1296 1.78232,0.17213 0.11446,0.11447 2.57383,24.2858 2.48091,24.38307 -0.0436,0.0457 -0.8334,-0.0254 -1.75501,-0.15807 -2.07417,-0.2985 -2.02715,-0.16975 -2.53171,-6.93288 -0.21001,-2.81496 -0.47114,-5.11811 -0.58029,-5.11811 -0.10916,0 -0.76002,2.76378 -1.44636,6.14173 -0.79414,3.90846 -1.38651,6.14173 -1.62909,6.14173 -2.00738,0 -2.89268,-1.58992 -4.05036,-7.27414 -0.43228,-2.12254 -0.84229,-3.91548 -0.91113,-3.98432 -0.17957,-0.17957 -0.41273,1.13575 -0.96282,5.43169 -0.82956,6.47839 -0.5247,5.82677 -2.72615,5.82677 h -1.90052 z"
       id="path11"
       transform="matrix(0.26458333,0,0,0.26458333,0.96388,0.72189133)" /><path
       style="fill:#ffffff;fill-opacity:1;stroke-width:0.314961"
       d="m 175.82677,150.68343 c -0.31584,-0.18396 -0.55118,-0.69501 -0.55118,-1.19693 0,-0.98756 1.6509,-9.30175 3.16575,-15.94319 0.55316,-2.4252 1.07365,-4.71704 1.15664,-5.09298 0.23411,-1.06054 1.23477,-1.94406 2.46271,-2.17442 0.61506,-0.11539 1.2025,-0.12558 1.30543,-0.0226 0.10293,0.10293 1.14483,4.76168 2.31533,10.35277 1.1705,5.59109 2.34977,11.01105 2.62059,12.04435 0.55981,2.13584 0.35872,2.49722 -1.21543,2.18429 -1.96513,-0.39066 -2.98457,-1.80262 -2.99037,-4.14176 -0.002,-0.67919 -0.11309,-0.70866 -2.67892,-0.70866 h -2.67716 v 2.51969 2.51968 l -1.1811,-0.01 c -0.64961,-0.005 -1.42914,-0.15404 -1.73229,-0.33061 z m 7.01619,-8.34308 c 0.33943,-0.89279 0.28045,-1.30996 -0.72053,-5.09626 -0.37782,-1.42913 -0.79734,-2.59842 -0.93225,-2.59842 -0.13491,0 -0.24739,0.88583 -0.24995,1.9685 -0.003,1.08268 -0.21626,2.86609 -0.47488,3.96314 -0.25863,1.09705 -0.3899,2.12461 -0.29172,2.28346 0.0982,0.15886 0.66971,0.28884 1.27008,0.28884 0.88239,0 1.15053,-0.15508 1.39925,-0.80926 z"
       id="path12"
       transform="matrix(0.26458333,0,0,0.26458333,0.96388,0.72189133)" /><path
       style="fill:#ffffff;fill-opacity:1;stroke-width:0.314961"
       d="m 211.1811,140.63446 v -10.38917 l -1.42549,-0.35894 c -1.64077,-0.41315 -2.669,-1.50811 -2.669,-2.84221 v -0.90241 h 5.82678 5.82677 v 1.10236 c 0,1.36518 -0.79339,2.21233 -2.50307,2.6727 l -1.27646,0.34371 v 10.38156 10.38156 h -1.88976 -1.88977 z"
       id="path13"
       transform="matrix(0.26458333,0,0,0.26458333,0.96388,0.72189133)" /><path
       style="fill:#ffffff;fill-opacity:1;stroke-width:0.314961"
       d="m 240.15748,138.58268 v -12.44095 h 1.88976 1.88977 v 12.44095 12.44094 h -1.88977 -1.88976 z"
       id="path14"
       transform="matrix(0.26458333,0,0,0.26458333,0.96388,0.72189133)" /><path
       style="fill:#ffffff;fill-opacity:1;stroke-width:0.314961"
       d="m 268.55629,148.93224 -1.94212,-2.15184 0.0148,-3.31146 c 0.0242,-5.41506 0.48791,-11.05369 1.08074,-13.14177 1.08253,-3.81293 3.34392,-5.4029 7.04138,-4.9508 1.51527,0.18528 1.9575,0.39873 2.93273,1.41553 2.67745,2.79159 4.1927,11.86532 2.95601,17.70135 -0.24837,1.17207 -0.8287,2.97138 -1.28963,3.99846 -0.95877,2.13644 -0.81454,2.07575 -5.67581,2.38822 l -3.176,0.20415 z m 6.24875,-1.64158 c 0.52552,-0.52552 1.12481,-1.66923 1.44406,-2.75591 0.98036,-3.33694 0.58936,-12.08096 -0.67812,-15.16467 -0.53725,-1.30713 -1.69248,-1.39163 -2.6355,-0.19277 -1.62202,2.06207 -2.76065,8.97674 -2.23587,13.578 0.57379,5.03094 2.01629,6.62449 4.10543,4.53535 z"
       id="path15"
       transform="matrix(0.26458333,0,0,0.26458333,0.96388,0.72189133)" /><path
       style="fill:#ffffff;fill-opacity:1;stroke-width:0.314961"
       d="m 303.14961,138.57668 v -12.44695 l 0.86614,0.20578 c 0.47638,0.11318 1.10592,0.41385 1.39899,0.66815 0.78458,0.6808 2.76447,4.69913 4.69645,9.53177 l 1.69983,4.25197 0.1921,-6.61417 c 0.10565,-3.6378 0.21195,-6.93307 0.23622,-7.32284 0.0401,-0.64366 0.20301,-0.70866 1.77641,-0.70866 h 1.73228 v 12.47671 12.47671 l -1.49606,-0.21119 c -0.82284,-0.11615 -1.70866,-0.27261 -1.96851,-0.34769 -0.2803,-0.081 -1.36907,-2.50577 -2.67716,-5.96228 -1.2126,-3.20418 -2.31102,-5.82759 -2.44095,-5.8298 -0.12992,-0.002 -0.23622,2.75975 -0.23622,6.1377 v 6.14173 h -1.88976 -1.88976 z"
       id="path16"
       transform="matrix(0.26458333,0,0,0.26458333,0.96388,0.72189133)" /><path
       style="fill:#c83737;stroke-width:0.314961"
       d="M 102.20472,103.93776 V 93.700787 l 0.70867,-0.01045 c 41.64756,-0.614139 43.63495,-0.687033 46.0315,-1.688378 l 1.13385,-0.473754 V 57.189515 22.850822 l -0.87915,-0.454625 c -1.7893,-0.925284 -6.13847,-1.171194 -25.73502,-1.455107 -10.91339,-0.158112 -20.16142,-0.292807 -20.55118,-0.299322 l -0.70867,-0.01185 V 10.430124 0.23032614 l 8.74016,0.14253395 c 4.80709,0.0783937 16.11024,0.24665062 25.11811,0.37390432 l 16.37795,0.23137036 3.30709,1.83561043 c 4.86098,2.6981055 6.51799,3.82064 8.36251,5.6651669 3.95657,3.9565639 5.39108,9.3341209 6.14004,23.0171509 0.4684,8.557304 0.23933,51.51982 -0.3048,57.165354 -1.23275,12.790353 -3.52608,16.685353 -13.04207,22.150743 l -4.29313,2.46571 -18.35254,0.27339 c -10.09389,0.15036 -21.43521,0.35215 -25.20292,0.44843 l -6.8504,0.17505 z"
       id="path17"
       transform="matrix(0.26458333,0,0,0.26458333,0.96388,0.72189133)" /><path
       style="fill:#c83737;stroke-width:0.314961"
       d="m 181.97467,113.30774 c -0.2918,-1.04349 -0.32865,-18.838886 -0.0396,-19.12756 0.11153,-0.111386 6.77295,-0.401034 14.80315,-0.64366 18.36904,-0.555008 19.70541,-0.650451 20.12659,-1.437433 0.85466,-1.596948 0.99885,-7.782095 1.14666,-49.185701 L 218.1641,0.15748031 h 10.35666 10.35666 L 238.71268,33.464567 c -0.18305,37.01195 -0.52074,52.9296 -1.23783,58.346457 -0.57612,4.352019 -1.47672,8.09948 -2.41667,10.055936 -1.45495,3.02838 -5.01776,6.00588 -11.86318,9.9142 l -2.63177,1.50258 -13.27374,0.26969 c -7.30056,0.14833 -15.92845,0.34876 -19.17309,0.4454 l -5.89935,0.1757 z"
       id="path18"
       transform="matrix(0.26458333,0,0,0.26458333,0.96388,0.72189133)" /><path
       style="fill:#c83737;stroke-width:0.314961"
       d="m 294.01575,113.55171 -13.07087,-0.16588 -3.77953,-1.44743 c -5.14786,-1.97146 -7.06181,-2.95058 -8.88469,-4.54519 -1.90129,-1.66321 -3.28008,-4.17922 -4.32141,-7.885742 -2.04278,-7.271065 -2.30408,-13.859751 -2.50045,-63.050775 L 261.31389,0.15748031 h 10.20919 10.2092 V 46.130652 c 0,45.263442 0.009,45.978246 0.61439,46.301981 1.11226,0.595263 9.42135,0.94378 22.61396,0.948523 l 12.99213,0.0047 v 10.236224 10.23622 l -5.43307,-0.0703 c -2.98819,-0.0387 -11.31497,-0.14499 -18.50394,-0.23622 z"
       id="path19"
       transform="matrix(0.26458333,0,0,0.26458333,0.96388,0.72189133)" /></g></svg>
