<?xml version="1.0" encoding="UTF-8" standalone="no"?>
<!-- Created with Inkscape (http://www.inkscape.org/) -->

<svg
   width="84.137489mm"
   height="40.065071mm"
   viewBox="0 0 84.137489 40.065071"
   version="1.1"
   id="svg1"
   xml:space="preserve"
   sodipodi:docname="djl_col_light.svg"
   inkscape:version="1.3.2 (091e20e, 2023-11-25, custom)"
   xmlns:inkscape="http://www.inkscape.org/namespaces/inkscape"
   xmlns:sodipodi="http://sodipodi.sourceforge.net/DTD/sodipodi-0.dtd"
   xmlns="http://www.w3.org/2000/svg"
   xmlns:svg="http://www.w3.org/2000/svg"><sodipodi:namedview
     id="namedview1"
     pagecolor="#505050"
     bordercolor="#eeeeee"
     borderopacity="1"
     inkscape:showpageshadow="0"
     inkscape:pageopacity="0"
     inkscape:pagecheckerboard="0"
     inkscape:deskcolor="#505050"
     inkscape:document-units="mm"
     inkscape:zoom="3.175"
     inkscape:cx="200.15748"
     inkscape:cy="88.661417"
     inkscape:window-width="1920"
     inkscape:window-height="1129"
     inkscape:window-x="-8"
     inkscape:window-y="-8"
     inkscape:window-maximized="1"
     inkscape:current-layer="layer1" /><defs
     id="defs1" /><g
     inkscape:label="Layer 1"
     inkscape:groupmode="layer"
     id="layer1"
     transform="translate(-0.96388,-0.72189133)"><path
       style="fill:#000000;fill-opacity:1"
       d="m 1.493046,40.577303 c 0,-0.0752 0.297657,-1.51351 0.661459,-3.19617 0.363802,-1.68266 0.661458,-3.10938 0.661458,-3.1705 0,-0.0611 0.238125,-0.11113 0.529167,-0.11113 0.291041,0 0.529166,0.0415 0.529166,0.0922 0,0.0507 0.297657,1.43797 0.661459,3.08278 0.791729,3.57955 0.785178,3.43959 0.160974,3.43959 -0.313189,0 -0.562611,-0.24754 -0.666499,-0.66146 -0.106511,-0.42438 -0.352069,-0.66146 -0.6851,-0.66146 -0.333031,0 -0.57859,0.23708 -0.685101,0.66146 -0.139716,0.55667 -1.166983,1.01853 -1.166983,0.52467 z m 2.173105,-2.77363 c -0.06407,-0.43656 -0.222047,-0.79375 -0.351051,-0.79375 -0.129005,0 -0.234554,0.35719 -0.234554,0.79375 0,0.48312 0.137384,0.79375 0.351051,0.79375 0.239557,0 0.314051,-0.2521 0.234554,-0.79375 z m 7.260611,2.42656 -0.437882,-0.48385 v -2.82344 -2.82344 h 0.529166 0.529167 v 2.49191 c 0,2.71387 0.127442,3.32893 0.689766,3.32893 h 0.368567 v -2.91042 -2.91042 h 0.661458 0.661459 v 2.71926 2.71925 l -0.411878,0.58804 c -0.519246,0.74133 -1.960737,0.79931 -2.589823,0.10418 z m 9.351701,-2.26341 v -2.74727 l -0.529167,-0.13838 c -0.291042,-0.0761 -0.529167,-0.32812 -0.529167,-0.56002 v -0.42165 h 1.5875 1.5875 v 0.42165 c 0,0.2319 -0.238125,0.48391 -0.529166,0.56002 l -0.529167,0.13838 v 2.74727 2.74727 h -0.529167 -0.529166 z m 7.804746,2.21759 -0.502247,-0.55498 0.0036,-2.16965 c 0.005,-3.01658 0.716416,-3.99292 2.570425,-3.5276 1.161947,0.29164 1.757477,4.27538 0.895168,5.98816 l -0.333017,0.66145 -1.065836,0.0788 -1.065836,0.0788 z m 2.070514,-1.40197 c 0.266135,-1.12533 0.0147,-3.79592 -0.380368,-4.04009 -0.834023,-0.51545 -1.492941,3.12993 -0.862643,4.77246 0.284777,0.74212 0.992985,0.32485 1.243011,-0.73237 z m 6.886798,0.80717 c 0.08437,-0.61847 0.232321,-2.10675 0.328789,-3.30729 l 0.175398,-2.18282 h 0.503306 c 0.56838,0 0.596285,0.06 1.046631,2.24896 l 0.326598,1.5875 0.38271,-1.91823 0.382709,-1.91823 h 0.49694 c 0.27331,0 0.50495,0.0298 0.51475,0.0662 0.01,0.0364 0.1653,1.52991 0.34555,3.31897 l 0.32774,3.25282 -0.54399,-0.0778 -0.54399,-0.0778 -0.13229,-1.5875 -0.13229,-1.5875 -0.34723,1.66987 -0.347235,1.66987 -0.441317,-0.085 c -0.302482,-0.0583 -0.531426,-0.54196 -0.727751,-1.53758 l -0.286435,-1.45258 -0.200823,1.52135 -0.200822,1.52136 h -0.54017 -0.54017 z m 10.225429,0.78136 c 0,-0.35721 0.97385,-4.99915 1.21857,-5.80845 0.077,-0.25466 0.35085,-0.46302 0.60855,-0.46302 h 0.46854 l 0.6114,2.97657 c 0.33628,1.63711 0.66995,3.13586 0.7415,3.33057 0.0906,0.2464 -0.0622,0.32683 -0.50246,0.26458 -0.41953,-0.0593 -0.66103,-0.2899 -0.7171,-0.68474 l -0.0845,-0.59531 h -0.64306 -0.64305 v 0.66146 0.66146 h -0.52917 c -0.29104,0 -0.52917,-0.15441 -0.52917,-0.34312 z m 2.0903,-2.23657 c -0.0145,-0.25466 -0.1217,-0.76068 -0.23821,-1.12448 l -0.21184,-0.66146 -0.0264,0.70597 c -0.0145,0.38828 -0.0986,0.89429 -0.18697,1.12448 -0.10539,0.27463 -0.0144,0.41851 0.26458,0.41851 0.23859,0 0.41361,-0.20319 0.39881,-0.46302 z m 7.4347,-0.16758 v -2.74727 l -0.52916,-0.13838 c -0.29104,-0.0761 -0.52917,-0.32812 -0.52917,-0.56002 v -0.42165 h 1.5875 1.5875 v 0.42165 c 0,0.2319 -0.23812,0.48391 -0.52917,0.56002 l -0.52916,0.13838 v 2.74727 2.74727 h -0.52917 -0.52917 z m 7.67292,-0.56003 v -3.30729 h 0.52917 0.52916 v 3.30729 3.3073 h -0.52916 -0.52917 z m 7.54016,2.77762 -0.50224,-0.55498 0.004,-2.16965 c 0.005,-3.01658 0.71641,-3.99292 2.57042,-3.5276 1.16195,0.29164 1.75748,4.27538 0.89517,5.98816 l -0.33302,0.66145 -1.06583,0.0788 -1.06584,0.0788 z m 2.07052,-1.40197 c 0.26613,-1.12533 0.0147,-3.79592 -0.38037,-4.04009 -0.83402,-0.51545 -1.49294,3.12993 -0.86264,4.77246 0.28477,0.74212 0.99298,0.32485 1.24301,-0.73237 z m 7.05807,-1.39505 v -3.32669 l 0.45133,0.0869 c 0.2811,0.0541 0.72391,0.78498 1.17399,1.93763 l 0.72266,1.85071 0.0166,-1.91823 0.0166,-1.91823 h 0.52917 0.52916 v 3.3257 3.32569 l -0.56,-0.0846 -0.56001,-0.0845 -0.61197,-1.5875 -0.61197,-1.5875 -0.0187,1.65365 -0.0187,1.65365 H 81.66162 81.13245 Z M 0.96388,15.843251 V 0.76200133 H 13.002421 25.040962 V 7.5038313 14.245671 l -0.595312,0.11298 c -0.327422,0.0621 -1.533441,0.3302 -2.680042,0.59571 l -2.08473,0.48273 -0.428812,-0.61199 c -0.235846,-0.33659 -0.734167,-0.97558 -1.107378,-1.41997 l -0.678566,-0.80799 -0.557015,0.29811 c -0.306359,0.16396 -0.691704,0.70621 -0.856322,1.20501 -0.164619,0.4988 -0.476857,1.05426 -0.693861,1.23436 l -0.394555,0.32745 -0.288425,-0.28842 c -0.158634,-0.15864 -0.447835,-1.20513 -0.64267,-2.32554 -0.392892,-2.25937 -0.919117,-3.2902797 -1.679512,-3.2902797 -1.160723,0 -1.557391,0.9681597 -2.276483,5.5562497 -0.239478,1.52797 -0.528643,2.94694 -0.642589,3.15327 l -0.207175,0.37513 -0.154547,-0.77201 c -0.085,-0.42461 -0.280843,-2.43889 -0.435205,-4.47618 C 8.099747,6.4934813 7.486805,3.9177413 6.258637,3.5965613 4.286916,3.0809513 3.23596,7.8758113 2.559498,20.473463 c -0.164097,3.05594 -0.363227,6.65758 -0.442513,8.00364 l -0.144156,2.4474 H 1.468354 0.96388 Z m 2.38261,13.559902 c 0.0062,-6.91421 1.140453,-19.9357117 2.005104,-23.0187517 0.883539,-3.1504 1.326387,-1.36262 2.244727,9.0619797 0.662788,7.523682 2.586076,7.256772 3.813064,-0.52917 0.664968,-4.21961 0.949389,-4.52224 1.430564,-1.52219 0.556409,3.46914 2.708936,4.59082 3.923236,2.04441 0.524476,-1.09984 0.667587,-1.12919 1.146108,-0.23507 0.201345,0.37622 0.697984,0.85567 1.103641,1.06544 l 0.737559,0.38141 2.218374,-0.53627 c 1.220106,-0.29495 2.410461,-0.53627 2.645235,-0.53627 h 0.42686 v 7.672912 7.67292 H 14.193046 3.34513 Z m 24.604889,-1.23672 v -2.79818 h 5.838227 c 3.518464,0 6.041576,-0.10883 6.349996,-0.27389 l 0.51177,-0.27389 V 15.843251 6.8660413 l -0.51177,-0.2739 c -0.30842,-0.16506 -2.831532,-0.27389 -6.349996,-0.27389 h -5.838227 v -2.79818 -2.79817997 l 6.680729,0.0862 6.680724,0.0862 1.44629,0.79374997 c 3.17014,1.73983 3.4485,2.88244 3.4485,14.1552097 0,11.272772 -0.27836,12.415382 -3.4485,14.155202 l -1.44629,0.79375 -6.680724,0.0862 -6.680729,0.0862 z m 21.024441,2.43074 c -0.0794,-0.2068 -0.10959,-1.43815 -0.0672,-2.73632 l 0.0771,-2.36031 4.5743,-0.13229 4.5743,-0.13229 0.25029,-0.39688 c 0.14753,-0.23393 0.25196,-5.25798 0.25435,-12.236982 l 0.004,-11.84009967 h 2.77812 2.77813 V 12.499851 c 0,14.987652 -0.12014,15.597912 -3.43959,17.471152 l -1.4552,0.82121 -5.0922,0.0905 -5.0922,0.0905 z m 25.27763,-0.18969 c -4.03026,-1.38406 -4.23333,-2.2216 -4.23333,-17.459522 V 0.76200133 h 2.77813 2.77812 V 12.904531 25.047053 l 0.41852,0.1606 c 0.23018,0.0883 2.3733,0.1606 4.7625,0.1606 h 4.34398 v 2.77812 2.77813 l -4.69635,-0.009 -4.69636,-0.009 z"
       id="path1" /><path
       style="fill:#800000;stroke-width:0.314961"
       d="M 102.20472,103.86582 V 93.478639 l 19.6063,-0.191937 c 20.37358,-0.199452 25.5185,-0.469776 27.15739,-1.426916 l 0.95285,-0.556485 0.0801,-34.185865 0.0801,-34.185865 -1.1856,-0.534629 c -2.09826,-0.946185 -6.14939,-1.151345 -26.61247,-1.347721 L 102.20472,20.856534 V 10.507007 0.15748032 l 2.12599,-7.8576e-4 C 105.5,0.1562624 116.80315,0.30685994 129.44882,0.49135578 l 22.99213,0.33544696 3.77952,2.06857786 c 6.95197,3.8048893 9.12035,5.7150698 11.01461,9.7030444 2.02602,4.265346 2.81744,9.453449 3.3055,21.668797 0.40808,10.213641 0.40808,35.582624 0,45.796265 -0.82944,20.759563 -2.49293,24.635403 -13.16894,30.682813 l -4.79267,2.71479 -14.87216,0.19982 c -8.17969,0.10989 -19.5139,0.28808 -25.18712,0.39595 l -10.31497,0.19615 z"
       id="path2"
       transform="matrix(0.26458333,0,0,0.26458333,0.96388,0.72189133)" /><path
       style="fill:#800000;stroke-width:0.314961"
       d="m 181.84487,113.50711 c -0.33811,-0.59407 -0.41375,-2.71948 -0.36159,-10.16099 0.0363,-5.175386 0.10714,-9.446536 0.15748,-9.491443 0.0503,-0.04491 6.61121,-0.254488 14.57971,-0.465735 7.96851,-0.211244 15.76378,-0.475531 17.32284,-0.587298 l 2.83464,-0.203219 0.55281,-1.130208 c 0.82994,-1.696812 1.16468,-18.252872 1.17273,-58.00365 l 0.007,-33.30708668 h 10.42884 10.42884 l -0.1667,40.07874068 c -0.16459,39.630176 -0.32141,45.908491 -1.32029,52.857499 -1.4015,9.74995 -3.24296,12.44787 -11.94032,17.49377 l -4.94852,2.87095 -10.61113,0.20279 c -5.83612,0.11154 -14.4581,0.2915 -19.15996,0.39994 l -8.54883,0.19714 z"
       id="path3"
       transform="matrix(0.26458333,0,0,0.26458333,0.96388,0.72189133)" /><path
       style="fill:#800000;stroke-width:0.314961"
       d="m 277.95276,112.32566 c -5.53841,-1.95114 -7.02295,-2.63419 -9.0479,-4.16304 -3.19939,-2.41556 -4.95574,-6.11742 -6.06576,-12.784777 -1.26221,-7.581506 -1.35399,-10.887818 -1.49128,-53.7243 L 261.21481,0.15748032 h 10.25874 10.25873 V 46.11092 92.064362 l 1.02363,0.376107 c 1.43637,0.527761 11.38521,0.908652 24.25196,0.928485 l 10.94489,0.01687 v 10.236226 10.23622 l -17.87402,-0.0173 -17.87402,-0.0173 z"
       id="path4"
       transform="matrix(0.26458333,0,0,0.26458333,0.96388,0.72189133)" /></g></svg>
