<?xml version="1.0" encoding="UTF-8" standalone="no"?>
<!-- Uploaded to: SVG Repo, www.svgrepo.com, Generator: SVG Repo Mixer Tools -->

<svg
   width="800px"
   height="800px"
   viewBox="0 0 20 20"
   fill="none"
   version="1.1"
   id="svg1"
   sodipodi:docname="document_dark.svg"
   inkscape:version="1.3.2 (091e20e, 2023-11-25, custom)"
   xmlns:inkscape="http://www.inkscape.org/namespaces/inkscape"
   xmlns:sodipodi="http://sodipodi.sourceforge.net/DTD/sodipodi-0.dtd"
   xmlns="http://www.w3.org/2000/svg"
   xmlns:svg="http://www.w3.org/2000/svg">
  <defs
     id="defs1" />
  <sodipodi:namedview
     id="namedview1"
     pagecolor="#ffffff"
     bordercolor="#000000"
     borderopacity="0.25"
     inkscape:showpageshadow="2"
     inkscape:pageopacity="0.0"
     inkscape:pagecheckerboard="0"
     inkscape:deskcolor="#d1d1d1"
     inkscape:zoom="1.11375"
     inkscape:cx="400"
     inkscape:cy="400"
     inkscape:window-width="1920"
     inkscape:window-height="1129"
     inkscape:window-x="-8"
     inkscape:window-y="-8"
     inkscape:window-maximized="1"
     inkscape:current-layer="svg1" />
  <path
     fill="#000000"
     fill-rule="evenodd"
     d="M4 1a2 2 0 00-2 2v14a2 2 0 002 2h12a2 2 0 002-2V7.414A2 2 0 0017.414 6L13 1.586A2 2 0 0011.586 1H4zm0 2h7.586L16 7.414V17H4V3zm2 2a1 1 0 000 2h5a1 1 0 100-2H6zm-1 5a1 1 0 011-1h8a1 1 0 110 2H6a1 1 0 01-1-1zm1 3a1 1 0 100 2h8a1 1 0 100-2H6z"
     id="path1" />
  <path
     style="fill:#ffffff;stroke-width:0.897868"
     d="M 145.06426,758.17399 C 132.4123,755.67752 118.03554,748.59547 107.70734,739.77182 96.673435,730.34526 86.814497,714.19268 82.815565,698.9899 l -2.007484,-7.63188 V 400 108.64198 l 2.007484,-7.63188 C 86.778936,85.942514 96.738033,69.550104 107.41692,60.51692 117.24609,52.202502 124.70151,47.997959 136.9248,43.875718 l 7.63188,-2.57381 163.86083,-0.249273 c 181.75395,-0.276493 170.74109,-0.610565 185.24672,5.619415 14.8727,6.387629 11.93192,3.660942 113.77716,105.49404 87.80745,87.79697 96.93463,97.19395 100.74802,103.72617 5.02829,8.61327 9.33927,21.0958 10.60053,30.69399 0.6138,4.67109 0.83509,73.64464 0.66199,206.34304 l -0.26001,199.3266 -2.01131,7.18294 c -4.24369,15.15534 -14.08466,31.10346 -24.88795,40.33299 -7.65489,6.53978 -18.6205,12.75629 -28.2518,16.01623 l -8.59754,2.91004 -253.19865,0.13079 c -141.67473,0.0732 -254.95246,-0.21528 -257.18041,-0.65489 z M 640.62851,488.21719 V 296.2997 L 552.41473,208.08251 464.20095,119.86532 H 311.78622 159.37149 V 400 680.13468 H 400 640.62851 Z"
     id="path2"
     transform="scale(0.025)" />
  <path
     style="fill:#ffffff;stroke-width:0.897868"
     d="m 232.09877,278.69993 c -11.36207,-2.21894 -22.29427,-11.03057 -27.73952,-22.35874 -3.09373,-6.43612 -3.23566,-7.15105 -3.20843,-16.16162 0.0229,-7.59423 0.41457,-10.38795 2.01381,-14.36588 3.98609,-9.91497 12.66717,-18.60697 22.64906,-22.67755 l 4.93827,-2.01381 h 109.53985 109.53984 l 5.9974,2.84133 c 34.48863,16.33927 29.88736,64.7569 -7.06883,74.38277 -4.42534,1.15265 -19.60032,1.32561 -108.88152,1.24094 -57.05674,-0.0541 -105.55771,-0.45345 -107.77993,-0.88744 z"
     id="path3"
     transform="scale(0.025)" />
  <path
     style="fill:#ffffff;stroke-width:0.897868"
     d="M 230.30303,438.22135 C 212.66675,433.314 200.6734,417.84884 200.6734,400.01458 c 0,-18.15885 12.0319,-33.47955 30.07856,-38.30023 6.6475,-1.7757 331.84858,-1.7757 338.49608,0 9.92497,2.65119 18.02382,8.33109 23.37551,16.39376 15.19025,22.88509 3.49211,53.00057 -23.37551,60.17754 -6.39531,1.70834 -332.79695,1.64641 -338.94501,-0.0643 z"
     id="path4"
     transform="scale(0.025)" />
  <path
     style="fill:#ffffff;stroke-width:0.897868"
     d="m 228.29356,597.58789 c -22.81953,-7.3162 -34.05286,-32.72387 -23.87841,-54.0085 5.53547,-11.58004 16.39517,-20.10722 28.47957,-22.36253 6.64247,-1.23968 327.56809,-1.23968 334.21056,0 12.15414,2.26833 22.97915,10.76383 28.53283,22.39264 3.09402,6.47858 3.23827,7.20684 3.21107,16.21093 -0.023,7.59423 -0.41458,10.38795 -2.01381,14.36588 -3.98609,9.91497 -12.66717,18.60697 -22.64906,22.67755 l -4.93827,2.01381 -167.90124,0.181 c -160.83603,0.17339 -168.11803,0.1115 -173.05324,-1.47078 z"
     id="path5"
     transform="scale(0.025)" />
</svg>
