<?xml version="1.0" encoding="UTF-8" standalone="no"?>
<!-- Uploaded to: SVG Repo, www.svgrepo.com, Generator: SVG Repo Mixer Tools -->

<svg
   fill="#000000"
   height="800px"
   width="800px"
   version="1.1"
   id="Layer_1"
   viewBox="0 0 455 455"
   xml:space="preserve"
   sodipodi:docname="linkedin - Copy.svg"
   inkscape:version="1.3.2 (091e20e, 2023-11-25, custom)"
   xmlns:inkscape="http://www.inkscape.org/namespaces/inkscape"
   xmlns:sodipodi="http://sodipodi.sourceforge.net/DTD/sodipodi-0.dtd"
   xmlns="http://www.w3.org/2000/svg"
   xmlns:svg="http://www.w3.org/2000/svg"><defs
   id="defs2" /><sodipodi:namedview
   id="namedview2"
   pagecolor="#ffffff"
   bordercolor="#000000"
   borderopacity="0.25"
   inkscape:showpageshadow="2"
   inkscape:pageopacity="0.0"
   inkscape:pagecheckerboard="0"
   inkscape:deskcolor="#d1d1d1"
   inkscape:zoom="1.11375"
   inkscape:cx="400"
   inkscape:cy="400"
   inkscape:window-width="1920"
   inkscape:window-height="1129"
   inkscape:window-x="-8"
   inkscape:window-y="-8"
   inkscape:window-maximized="1"
   inkscape:current-layer="Layer_1" />
<g
   id="g2">
	<path
   style="fill-rule:evenodd;clip-rule:evenodd;"
   d="M246.4,204.35v-0.665c-0.136,0.223-0.324,0.446-0.442,0.665H246.4z"
   id="path1" />
	<path
   style="fill-rule:evenodd;clip-rule:evenodd;"
   d="M0,0v455h455V0H0z M141.522,378.002H74.016V174.906h67.506V378.002z    M107.769,147.186h-0.446C84.678,147.186,70,131.585,70,112.085c0-19.928,15.107-35.087,38.211-35.087   c23.109,0,37.31,15.159,37.752,35.087C145.963,131.585,131.32,147.186,107.769,147.186z M385,378.002h-67.524V269.345   c0-27.291-9.756-45.92-34.195-45.92c-18.664,0-29.755,12.543-34.641,24.693c-1.776,4.34-2.24,10.373-2.24,16.459v113.426h-67.537   c0,0,0.905-184.043,0-203.096H246.4v28.779c8.973-13.807,24.986-33.547,60.856-33.547c44.437,0,77.744,29.02,77.744,91.398V378.002   z"
   id="path2" />
</g>
<path
   style="fill:#4d4d4d;stroke-width:0.897868"
   d="M 130.63973,485.74635 V 307.51964 h 58.81033 58.81032 v 178.22671 178.22671 h -58.81032 -58.81033 z"
   id="path10"
   transform="scale(0.56875)" /><path
   style="fill:#4d4d4d;stroke-width:0.897868"
   d="m 174.70275,257.16071 c -20.0736,-3.93837 -36.29955,-15.78018 -44.42341,-32.42051 -6.55591,-13.42869 -8.26171,-26.03997 -5.41603,-40.0418 4.90131,-24.11631 23.13964,-41.7549 48.63085,-47.03171 10.35817,-2.14419 27.62198,-1.88532 36.60685,0.54891 13.21524,3.58035 26.0989,11.87148 33.26906,21.40991 8.73297,11.61741 12.38221,22.9369 12.36488,38.35429 -0.01,8.7006 -0.38281,11.4588 -2.37042,17.52735 -8.87091,27.08445 -33.02515,42.86117 -65.11579,42.5314 -5.2652,-0.0541 -11.3609,-0.44914 -13.54599,-0.87784 z"
   id="path11"
   transform="scale(0.56875)" /><path
   style="fill:#4d4d4d;stroke-width:0.897868"
   d="M 315.15152,485.7468 V 307.5205 l 59.07365,-4.3e-4 59.07365,-4.3e-4 -0.26333,26.03882 c -0.14482,14.32135 0.0397,26.03852 0.41008,26.03816 0.37037,-3.6e-4 0.6734,-0.51347 0.6734,-1.14023 0,-2.27065 14.39564,-20.24195 21.91932,-27.36373 16.92285,-16.01889 35.31093,-25.11021 59.78663,-29.55934 10.39778,-1.89008 36.4509,-2.11802 47.13804,-0.41241 20.90453,3.33624 39.00834,10.13585 54.62089,20.51505 8.39997,5.58429 21.04343,17.80512 28.04872,27.11116 10.92489,14.51292 20.85245,37.43783 25.49987,58.88475 4.96206,22.89899 4.81858,18.95477 5.16863,142.08755 l 0.32482,114.25364 h -58.80374 -58.80373 l -0.35156,-104.3771 c -0.31638,-93.93896 -0.50484,-105.14032 -1.8845,-112.00898 -3.18116,-15.8374 -7.35995,-26.38815 -13.8297,-34.91771 -10.30799,-13.5898 -24.38854,-19.85221 -44.63616,-19.85221 -18.97343,0 -31.5291,5.05821 -44.53318,17.94077 -8.48705,8.40774 -13.91278,16.71536 -17.71669,27.12693 l -2.3966,6.55968 -0.24512,109.76431 -0.24513,109.76431 -59.01413,2e-5 -59.01413,2e-5 z"
   id="path12"
   transform="scale(0.56875)" /><path
   style="fill:#ffffff;stroke-width:0.897868"
   d="M 0.44893378,400 V 0.44893378 H 400 799.55107 V 400 799.55107 H 400 0.44893378 Z M 249.15825,486.19529 V 307.51964 h -59.70819 -59.7082 v 178.67565 178.67564 h 59.7082 59.70819 z m 184.9763,71.60493 c 0.0174,-119.40088 -0.26212,-113.74131 6.27217,-126.99852 8.91614,-18.0897 24.34036,-31.01673 42.6102,-35.71161 6.94503,-1.78469 23.338,-1.78191 30.91968,0.005 25.05132,5.90512 40.01545,28.27729 43.10638,64.44638 0.63336,7.41132 0.98171,45.87929 0.98171,108.40842 v 96.92079 h 59.74939 59.74939 L 677.19843,550.1681 c -0.35104,-123.88071 -0.22898,-120.53606 -5.24399,-143.6832 -12.06268,-55.67604 -46.24326,-92.36636 -96.87026,-103.98305 -25.4437,-5.83823 -55.44276,-4.74127 -78.56342,2.87276 -23.77653,7.83002 -44.28872,24.01734 -60.78343,47.9676 -1.45131,2.10729 -1.52642,1.06479 -1.57127,-21.80486 l -0.0471,-24.01796 -59.93266,4e-4 -59.93266,4e-4 v 178.67528 178.67527 l 59.93266,-2e-5 59.93266,-4e-5 z M 205.81798,257.61687 c 25.24668,-5.21485 43.1549,-21.32762 49.31785,-44.37332 2.08815,-7.80843 2.10397,-23.51574 0.0317,-31.42537 -4.51406,-17.22927 -16.43021,-32.27114 -31.14952,-39.32036 -10.61346,-5.08288 -16.59407,-6.49106 -30.11195,-7.0901 -23.01498,-1.0199 -40.70149,5.22013 -54.46031,19.2143 -6.43862,6.54876 -10.90176,13.96686 -13.93181,23.15576 -2.08785,6.3316 -2.36858,8.61958 -2.36858,19.30415 0,10.70274 0.27821,12.96179 2.37744,19.30415 7.12749,21.53432 23.91367,36.27771 46.86782,41.16431 8.47989,1.80525 24.85186,1.8378 33.42741,0.0665 z"
   id="path13"
   transform="scale(0.56875)" /><path
   style="fill:#000000;stroke-width:0.897868"
   d="M 130.63973,485.74635 V 307.51964 h 58.81033 58.81032 v 178.22671 178.22671 h -58.81032 -58.81033 z"
   id="path14"
   transform="scale(0.56875)" /><path
   style="fill:#000000;stroke-width:0.897868"
   d="m 174.18631,256.67971 c -6.49899,-1.63862 -14.24909,-4.56361 -18.98184,-7.16397 -28.29502,-15.54649 -38.89339,-50.39373 -24.36931,-80.1258 4.03359,-8.25711 15.90283,-20.16391 24.49593,-24.57345 11.06924,-5.68016 17.30429,-7.17469 31.8743,-7.6402 16.12848,-0.51531 23.26532,0.80616 34.5679,6.40066 16.25465,8.04565 26.95982,20.74841 31.53139,37.41516 2.28296,8.32305 2.28727,26.45644 0.008,33.1493 -5.44227,15.97992 -16.65517,29.22004 -30.29028,35.76658 -11.60392,5.57132 -16.34058,6.57452 -32.67437,6.92034 -7.90123,0.16728 -15.17396,0.10041 -16.16161,-0.14862 z"
   id="path15"
   transform="scale(0.56875)" /><path
   style="fill:#000000;stroke-width:0.897868"
   d="M 315.60045,485.74635 V 307.51964 h 58.62505 58.62506 l -0.37248,24.57663 c -0.40646,26.81792 0.016,29.953 3.28889,24.40591 1.06046,-1.79734 4.19061,-6.10352 6.95588,-9.56929 20.14572,-25.24894 41.42948,-38.5819 71.064,-44.5172 11.29023,-2.26124 43.31592,-2.25116 54.11438,0.017 28.4445,5.97471 47.68125,15.8844 65.57994,33.78308 17.2619,17.26191 28.37854,37.95531 35.95567,66.93079 5.90329,22.5746 5.78072,19.06821 6.53604,186.97687 l 0.33219,73.8496 h -58.24232 c -32.03328,0 -58.29465,-0.10101 -58.35861,-0.22446 -0.0639,-0.12346 -0.42593,-45.477 -0.8044,-100.78564 -0.37847,-55.30864 -0.71361,-103.18743 -0.74478,-106.3973 -0.0788,-8.11678 -4.65669,-25.47362 -9.19391,-34.85817 -2.8861,-5.96943 -5.25783,-9.28204 -10.14607,-14.17106 -10.98211,-10.98384 -18.74742,-13.92496 -38.09751,-14.42948 -15.84612,-0.41317 -20.91956,0.50116 -31.50591,5.67795 -12.9326,6.32412 -27.38425,22.83602 -33.21124,37.94591 l -2.77922,7.20677 -0.004,98.56993 c -0.002,54.21346 -0.26637,103.72145 -0.58749,110.01774 l -0.58385,11.44781 H 373.82293 315.6001 Z"
   id="path16"
   transform="scale(0.56875)" /></svg>
